<?xml version="1.0" encoding="utf-8" standalone="no"?>
<!DOCTYPE svg PUBLIC "-//W3C//DTD SVG 1.1//EN"
  "http://www.w3.org/Graphics/SVG/1.1/DTD/svg11.dtd">
<svg xmlns:xlink="http://www.w3.org/1999/xlink" width="572.4pt" height="287.402359pt" viewBox="0 0 572.4 287.402359" xmlns="http://www.w3.org/2000/svg" version="1.1">
 <metadata>
  <rdf:RDF xmlns:dc="http://purl.org/dc/elements/1.1/" xmlns:cc="http://creativecommons.org/ns#" xmlns:rdf="http://www.w3.org/1999/02/22-rdf-syntax-ns#">
   <cc:Work>
    <dc:type rdf:resource="http://purl.org/dc/dcmitype/StillImage"/>
    <dc:date>2026-08-06T05:26:05.478421</dc:date>
    <dc:format>image/svg+xml</dc:format>
    <dc:creator>
     <cc:Agent>
      <dc:title>Matplotlib v3.11.0, https://matplotlib.org/</dc:title>
     </cc:Agent>
    </dc:creator>
   </cc:Work>
  </rdf:RDF>
 </metadata>
 <defs>
  <style type="text/css">*{stroke-linejoin: round; stroke-linecap: butt}</style>
 </defs>
 <g id="figure_1">
  <g id="patch_1">
   <path d="M 0 287.402359 
L 572.4 287.402359 
L 572.4 0 
L 0 0 
z
" style="fill: #ffffff"/>
  </g>
  <g id="axes_1">
   <g id="patch_2">
    <path d="M 98.453979 108.011485 
Q 129.961331 102.794139 161.468683 97.576792 
" clip-path="url(#p7e5dd3d9dc)" style="fill: none; stroke: #333333; stroke-width: 1.3; stroke-linecap: round"/>
   </g>
   <g id="patch_3">
    <path d="M 98.380415 131.143744 
Q 129.959172 141.602085 161.537928 152.060426 
" clip-path="url(#p7e5dd3d9dc)" style="fill: none; stroke: #333333; stroke-width: 1.3; stroke-linecap: round"/>
   </g>
   <g id="patch_4">
    <path d="M 185.76 113.110179 
Q 185.76 124.970284 185.76 136.830389 
" clip-path="url(#p7e5dd3d9dc)" style="fill: none; stroke: #333333; stroke-width: 1.3; stroke-linecap: round"/>
   </g>
   <g id="patch_5">
    <path d="M 43.47 139.939159 
L 104.85 139.939159 
Q 105.966 139.939159 105.966 138.830359 
L 105.966 100.022359 
Q 105.966 98.913559 104.85 98.913559 
L 43.47 98.913559 
Q 42.354 98.913559 42.354 100.022359 
L 42.354 138.830359 
Q 42.354 139.939159 43.47 139.939159 
z
" clip-path="url(#p7e5dd3d9dc)" style="fill: #ffffff; stroke: #333333; stroke-width: 1.4; stroke-linejoin: miter"/>
   </g>
   <g id="patch_6">
    <path d="M 155.07 112.219159 
L 216.45 112.219159 
Q 217.566 112.219159 217.566 111.110359 
L 217.566 72.302359 
Q 217.566 71.193559 216.45 71.193559 
L 155.07 71.193559 
Q 153.954 71.193559 153.954 72.302359 
L 153.954 111.110359 
Q 153.954 112.219159 155.07 112.219159 
z
" clip-path="url(#p7e5dd3d9dc)" style="fill: #ffffff; stroke: #333333; stroke-width: 1.4; stroke-linejoin: miter"/>
   </g>
   <g id="patch_7">
    <path d="M 155.07 178.747159 
L 216.45 178.747159 
Q 217.566 178.747159 217.566 177.638359 
L 217.566 138.830359 
Q 217.566 137.721559 216.45 137.721559 
L 155.07 137.721559 
Q 153.954 137.721559 153.954 138.830359 
L 153.954 177.638359 
Q 153.954 178.747159 155.07 178.747159 
z
" clip-path="url(#p7e5dd3d9dc)" style="fill: #ffffff; stroke: #333333; stroke-width: 1.4; stroke-linejoin: miter"/>
   </g>
   <g id="line2d_1">
    <path d="M 286.2 252.482359 
L 286.2 36.266359 
" clip-path="url(#p7e5dd3d9dc)" style="fill: none; stroke-dasharray: 1,1.65; stroke-dashoffset: 0; stroke: #333333"/>
   </g>
   <g id="patch_8">
    <path d="M 333.63 139.939159 
L 395.01 139.939159 
Q 396.126 139.939159 396.126 138.830359 
L 396.126 100.022359 
Q 396.126 98.913559 395.01 98.913559 
L 333.63 98.913559 
Q 332.514 98.913559 332.514 100.022359 
L 332.514 138.830359 
Q 332.514 139.939159 333.63 139.939159 
z
" clip-path="url(#p7e5dd3d9dc)" style="fill: #fdf3d0; stroke: #333333; stroke-width: 1.4; stroke-linejoin: miter"/>
   </g>
   <g id="patch_9">
    <path d="M 445.23 112.219159 
L 506.61 112.219159 
Q 507.726 112.219159 507.726 111.110359 
L 507.726 72.302359 
Q 507.726 71.193559 506.61 71.193559 
L 445.23 71.193559 
Q 444.114 71.193559 444.114 72.302359 
L 444.114 111.110359 
Q 444.114 112.219159 445.23 112.219159 
z
" clip-path="url(#p7e5dd3d9dc)" style="fill: #fdf3d0; stroke: #333333; stroke-width: 1.4; stroke-linejoin: miter"/>
   </g>
   <g id="patch_10">
    <path d="M 445.23 178.747159 
L 506.61 178.747159 
Q 507.726 178.747159 507.726 177.638359 
L 507.726 138.830359 
Q 507.726 137.721559 506.61 137.721559 
L 445.23 137.721559 
Q 444.114 137.721559 444.114 138.830359 
L 444.114 177.638359 
Q 444.114 178.747159 445.23 178.747159 
z
" clip-path="url(#p7e5dd3d9dc)" style="fill: #fdf3d0; stroke: #333333; stroke-width: 1.4; stroke-linejoin: miter"/>
   </g>
   <g id="text_1">
    <!-- Do thi THAT (k-NN) -->
    <g transform="translate(82.492578 50.126359) scale(0.11 -0.11)">
     <defs>
      <path id="DejaVuSans-Bold-27" d="M 1791 3756 
L 1791 909 
L 2222 909 
Q 2959 909 3348 1275 
Q 3738 1641 3738 2338 
Q 3738 3031 3350 3393 
Q 2963 3756 2222 3756 
L 1791 3756 
z
M 588 4666 
L 1856 4666 
Q 2919 4666 3439 4514 
Q 3959 4363 4331 4000 
Q 4659 3684 4818 3271 
Q 4978 2859 4978 2338 
Q 4978 1809 4818 1395 
Q 4659 981 4331 666 
Q 3956 303 3431 151 
Q 2906 0 1856 0 
L 588 0 
L 588 4666 
z
" transform="scale(0.015625)"/>
      <path id="DejaVuSans-Bold-52" d="M 2203 2784 
Q 1831 2784 1636 2517 
Q 1441 2250 1441 1747 
Q 1441 1244 1636 976 
Q 1831 709 2203 709 
Q 2569 709 2762 976 
Q 2956 1244 2956 1747 
Q 2956 2250 2762 2517 
Q 2569 2784 2203 2784 
z
M 2203 3584 
Q 3106 3584 3614 3096 
Q 4122 2609 4122 1747 
Q 4122 884 3614 396 
Q 3106 -91 2203 -91 
Q 1297 -91 786 396 
Q 275 884 275 1747 
Q 275 2609 786 3096 
Q 1297 3584 2203 3584 
z
" transform="scale(0.015625)"/>
      <path id="DejaVuSans-Bold-3" transform="scale(0.015625)"/>
      <path id="DejaVuSans-Bold-57" d="M 1759 4494 
L 1759 3500 
L 2913 3500 
L 2913 2700 
L 1759 2700 
L 1759 1216 
Q 1759 972 1856 886 
Q 1953 800 2241 800 
L 2816 800 
L 2816 0 
L 1856 0 
Q 1194 0 917 276 
Q 641 553 641 1216 
L 641 2700 
L 84 2700 
L 84 3500 
L 641 3500 
L 641 4494 
L 1759 4494 
z
" transform="scale(0.015625)"/>
      <path id="DejaVuSans-Bold-4b" d="M 4056 2131 
L 4056 0 
L 2931 0 
L 2931 347 
L 2931 1625 
Q 2931 2084 2911 2256 
Q 2891 2428 2841 2509 
Q 2775 2619 2662 2680 
Q 2550 2741 2406 2741 
Q 2056 2741 1856 2470 
Q 1656 2200 1656 1722 
L 1656 0 
L 538 0 
L 538 4863 
L 1656 4863 
L 1656 2988 
Q 1909 3294 2193 3439 
Q 2478 3584 2822 3584 
Q 3428 3584 3742 3212 
Q 4056 2841 4056 2131 
z
" transform="scale(0.015625)"/>
      <path id="DejaVuSans-Bold-4c" d="M 538 3500 
L 1656 3500 
L 1656 0 
L 538 0 
L 538 3500 
z
M 538 4863 
L 1656 4863 
L 1656 3950 
L 538 3950 
L 538 4863 
z
" transform="scale(0.015625)"/>
      <path id="DejaVuSans-Bold-37" d="M 31 4666 
L 4331 4666 
L 4331 3756 
L 2784 3756 
L 2784 0 
L 1581 0 
L 1581 3756 
L 31 3756 
L 31 4666 
z
" transform="scale(0.015625)"/>
      <path id="DejaVuSans-Bold-2b" d="M 588 4666 
L 1791 4666 
L 1791 2888 
L 3566 2888 
L 3566 4666 
L 4769 4666 
L 4769 0 
L 3566 0 
L 3566 1978 
L 1791 1978 
L 1791 0 
L 588 0 
L 588 4666 
z
" transform="scale(0.015625)"/>
      <path id="DejaVuSans-Bold-24" d="M 3419 850 
L 1538 850 
L 1241 0 
L 31 0 
L 1759 4666 
L 3194 4666 
L 4922 0 
L 3713 0 
L 3419 850 
z
M 1838 1716 
L 3116 1716 
L 2478 3572 
L 1838 1716 
z
" transform="scale(0.015625)"/>
      <path id="DejaVuSans-Bold-b" d="M 2413 -844 
L 1484 -844 
Q 1006 -72 778 623 
Q 550 1319 550 2003 
Q 550 2688 779 3389 
Q 1009 4091 1484 4856 
L 2413 4856 
Q 2013 4116 1813 3408 
Q 1613 2700 1613 2009 
Q 1613 1319 1811 609 
Q 2009 -100 2413 -844 
z
" transform="scale(0.015625)"/>
      <path id="DejaVuSans-Bold-4e" d="M 538 4863 
L 1656 4863 
L 1656 2216 
L 2944 3500 
L 4244 3500 
L 2534 1894 
L 4378 0 
L 3022 0 
L 1656 1459 
L 1656 0 
L 538 0 
L 538 4863 
z
" transform="scale(0.015625)"/>
      <path id="DejaVuSans-Bold-10" d="M 347 2297 
L 2309 2297 
L 2309 1388 
L 347 1388 
L 347 2297 
z
" transform="scale(0.015625)"/>
      <path id="DejaVuSans-Bold-31" d="M 588 4666 
L 1931 4666 
L 3628 1466 
L 3628 4666 
L 4769 4666 
L 4769 0 
L 3425 0 
L 1728 3200 
L 1728 0 
L 588 0 
L 588 4666 
z
" transform="scale(0.015625)"/>
      <path id="DejaVuSans-Bold-c" d="M 513 -844 
Q 913 -100 1113 609 
Q 1313 1319 1313 2009 
Q 1313 2700 1113 3408 
Q 913 4116 513 4856 
L 1441 4856 
Q 1916 4091 2145 3389 
Q 2375 2688 2375 2003 
Q 2375 1319 2147 623 
Q 1919 -72 1441 -844 
L 513 -844 
z
" transform="scale(0.015625)"/>
     </defs>
     <use xlink:href="#DejaVuSans-Bold-27"/>
     <use xlink:href="#DejaVuSans-Bold-52" transform="translate(83.015625 0)"/>
     <use xlink:href="#DejaVuSans-Bold-3" transform="translate(151.71875 0)"/>
     <use xlink:href="#DejaVuSans-Bold-57" transform="translate(186.53125 0)"/>
     <use xlink:href="#DejaVuSans-Bold-4b" transform="translate(234.328125 0)"/>
     <use xlink:href="#DejaVuSans-Bold-4c" transform="translate(305.515625 0)"/>
     <use xlink:href="#DejaVuSans-Bold-3" transform="translate(339.796875 0)"/>
     <use xlink:href="#DejaVuSans-Bold-37" transform="translate(374.609375 0)"/>
     <use xlink:href="#DejaVuSans-Bold-2b" transform="translate(442.828125 0)"/>
     <use xlink:href="#DejaVuSans-Bold-24" transform="translate(526.515625 0)"/>
     <use xlink:href="#DejaVuSans-Bold-37" transform="translate(596.140625 0)"/>
     <use xlink:href="#DejaVuSans-Bold-3" transform="translate(664.359375 0)"/>
     <use xlink:href="#DejaVuSans-Bold-b" transform="translate(699.171875 0)"/>
     <use xlink:href="#DejaVuSans-Bold-4e" transform="translate(744.875 0)"/>
     <use xlink:href="#DejaVuSans-Bold-10" transform="translate(811.375 0)"/>
     <use xlink:href="#DejaVuSans-Bold-31" transform="translate(852.875 0)"/>
     <use xlink:href="#DejaVuSans-Bold-31" transform="translate(936.5625 0)"/>
     <use xlink:href="#DejaVuSans-Bold-c" transform="translate(1020.25 0)"/>
    </g>
   </g>
   <g id="text_2">
    <!-- ma A -->
    <g transform="translate(61.21625 122.024016) scale(0.1 -0.1)">
     <defs>
      <path id="DejaVuSans-50" d="M 3328 2828 
Q 3544 3216 3844 3400 
Q 4144 3584 4550 3584 
Q 5097 3584 5394 3201 
Q 5691 2819 5691 2113 
L 5691 0 
L 5113 0 
L 5113 2094 
Q 5113 2597 4934 2840 
Q 4756 3084 4391 3084 
Q 3944 3084 3684 2787 
Q 3425 2491 3425 1978 
L 3425 0 
L 2847 0 
L 2847 2094 
Q 2847 2600 2669 2842 
Q 2491 3084 2119 3084 
Q 1678 3084 1418 2786 
Q 1159 2488 1159 1978 
L 1159 0 
L 581 0 
L 581 3500 
L 1159 3500 
L 1159 2956 
Q 1356 3278 1631 3431 
Q 1906 3584 2284 3584 
Q 2666 3584 2933 3390 
Q 3200 3197 3328 2828 
z
" transform="scale(0.015625)"/>
      <path id="DejaVuSans-44" d="M 2194 1759 
Q 1497 1759 1228 1600 
Q 959 1441 959 1056 
Q 959 750 1161 570 
Q 1363 391 1709 391 
Q 2188 391 2477 730 
Q 2766 1069 2766 1631 
L 2766 1759 
L 2194 1759 
z
M 3341 1997 
L 3341 0 
L 2766 0 
L 2766 531 
Q 2569 213 2275 61 
Q 1981 -91 1556 -91 
Q 1019 -91 701 211 
Q 384 513 384 1019 
Q 384 1609 779 1909 
Q 1175 2209 1959 2209 
L 2766 2209 
L 2766 2266 
Q 2766 2663 2505 2880 
Q 2244 3097 1772 3097 
Q 1472 3097 1187 3025 
Q 903 2953 641 2809 
L 641 3341 
Q 956 3463 1253 3523 
Q 1550 3584 1831 3584 
Q 2591 3584 2966 3190 
Q 3341 2797 3341 1997 
z
" transform="scale(0.015625)"/>
      <path id="DejaVuSans-3" transform="scale(0.015625)"/>
      <path id="DejaVuSans-24" d="M 2188 4044 
L 1331 1722 
L 3047 1722 
L 2188 4044 
z
M 1831 4666 
L 2547 4666 
L 4325 0 
L 3669 0 
L 3244 1197 
L 1141 1197 
L 716 0 
L 50 0 
L 1831 4666 
z
" transform="scale(0.015625)"/>
     </defs>
     <use xlink:href="#DejaVuSans-50"/>
     <use xlink:href="#DejaVuSans-44" transform="translate(97.40625 0)"/>
     <use xlink:href="#DejaVuSans-3" transform="translate(158.6875 0)"/>
     <use xlink:href="#DejaVuSans-24" transform="translate(190.46875 0)"/>
    </g>
   </g>
   <g id="text_3">
    <!-- ma B -->
    <g transform="translate(172.806094 94.304016) scale(0.1 -0.1)">
     <defs>
      <path id="DejaVuSans-25" d="M 1259 2228 
L 1259 519 
L 2272 519 
Q 2781 519 3026 730 
Q 3272 941 3272 1375 
Q 3272 1813 3026 2020 
Q 2781 2228 2272 2228 
L 1259 2228 
z
M 1259 4147 
L 1259 2741 
L 2194 2741 
Q 2656 2741 2882 2914 
Q 3109 3088 3109 3444 
Q 3109 3797 2882 3972 
Q 2656 4147 2194 4147 
L 1259 4147 
z
M 628 4666 
L 2241 4666 
Q 2963 4666 3353 4366 
Q 3744 4066 3744 3513 
Q 3744 3084 3544 2831 
Q 3344 2578 2956 2516 
Q 3422 2416 3680 2098 
Q 3938 1781 3938 1306 
Q 3938 681 3513 340 
Q 3088 0 2303 0 
L 628 0 
L 628 4666 
z
" transform="scale(0.015625)"/>
     </defs>
     <use xlink:href="#DejaVuSans-50"/>
     <use xlink:href="#DejaVuSans-44" transform="translate(97.40625 0)"/>
     <use xlink:href="#DejaVuSans-3" transform="translate(158.6875 0)"/>
     <use xlink:href="#DejaVuSans-25" transform="translate(190.46875 0)"/>
    </g>
   </g>
   <g id="text_4">
    <!-- ma C -->
    <g transform="translate(172.745156 160.832016) scale(0.1 -0.1)">
     <defs>
      <path id="DejaVuSans-26" d="M 4122 4306 
L 4122 3641 
Q 3803 3938 3442 4084 
Q 3081 4231 2675 4231 
Q 1875 4231 1450 3742 
Q 1025 3253 1025 2328 
Q 1025 1406 1450 917 
Q 1875 428 2675 428 
Q 3081 428 3442 575 
Q 3803 722 4122 1019 
L 4122 359 
Q 3791 134 3420 21 
Q 3050 -91 2638 -91 
Q 1578 -91 968 557 
Q 359 1206 359 2328 
Q 359 3453 968 4101 
Q 1578 4750 2638 4750 
Q 3056 4750 3426 4639 
Q 3797 4528 4122 4306 
z
" transform="scale(0.015625)"/>
     </defs>
     <use xlink:href="#DejaVuSans-50"/>
     <use xlink:href="#DejaVuSans-44" transform="translate(97.40625 0)"/>
     <use xlink:href="#DejaVuSans-3" transform="translate(158.6875 0)"/>
     <use xlink:href="#DejaVuSans-26" transform="translate(190.46875 0)"/>
    </g>
   </g>
   <g id="text_5">
    <!-- Moi ma 'nhin thay' va tron thong tin -->
    <g transform="translate(64.770742 206.244035) scale(0.085 -0.085)">
     <defs>
      <path id="DejaVuSans-30" d="M 628 4666 
L 1569 4666 
L 2759 1491 
L 3956 4666 
L 4897 4666 
L 4897 0 
L 4281 0 
L 4281 4097 
L 3078 897 
L 2444 897 
L 1241 4097 
L 1241 0 
L 628 0 
L 628 4666 
z
" transform="scale(0.015625)"/>
      <path id="DejaVuSans-52" d="M 1959 3097 
Q 1497 3097 1228 2736 
Q 959 2375 959 1747 
Q 959 1119 1226 758 
Q 1494 397 1959 397 
Q 2419 397 2687 759 
Q 2956 1122 2956 1747 
Q 2956 2369 2687 2733 
Q 2419 3097 1959 3097 
z
M 1959 3584 
Q 2709 3584 3137 3096 
Q 3566 2609 3566 1747 
Q 3566 888 3137 398 
Q 2709 -91 1959 -91 
Q 1206 -91 779 398 
Q 353 888 353 1747 
Q 353 2609 779 3096 
Q 1206 3584 1959 3584 
z
" transform="scale(0.015625)"/>
      <path id="DejaVuSans-4c" d="M 603 3500 
L 1178 3500 
L 1178 0 
L 603 0 
L 603 3500 
z
M 603 4863 
L 1178 4863 
L 1178 4134 
L 603 4134 
L 603 4863 
z
" transform="scale(0.015625)"/>
      <path id="DejaVuSans-a" d="M 1147 4666 
L 1147 2931 
L 616 2931 
L 616 4666 
L 1147 4666 
z
" transform="scale(0.015625)"/>
      <path id="DejaVuSans-51" d="M 3513 2113 
L 3513 0 
L 2938 0 
L 2938 2094 
Q 2938 2591 2744 2837 
Q 2550 3084 2163 3084 
Q 1697 3084 1428 2787 
Q 1159 2491 1159 1978 
L 1159 0 
L 581 0 
L 581 3500 
L 1159 3500 
L 1159 2956 
Q 1366 3272 1645 3428 
Q 1925 3584 2291 3584 
Q 2894 3584 3203 3211 
Q 3513 2838 3513 2113 
z
" transform="scale(0.015625)"/>
      <path id="DejaVuSans-4b" d="M 3513 2113 
L 3513 0 
L 2938 0 
L 2938 2094 
Q 2938 2591 2744 2837 
Q 2550 3084 2163 3084 
Q 1697 3084 1428 2787 
Q 1159 2491 1159 1978 
L 1159 0 
L 581 0 
L 581 4863 
L 1159 4863 
L 1159 2956 
Q 1366 3272 1645 3428 
Q 1925 3584 2291 3584 
Q 2894 3584 3203 3211 
Q 3513 2838 3513 2113 
z
" transform="scale(0.015625)"/>
      <path id="DejaVuSans-57" d="M 1172 4494 
L 1172 3500 
L 2356 3500 
L 2356 3053 
L 1172 3053 
L 1172 1153 
Q 1172 725 1289 603 
Q 1406 481 1766 481 
L 2356 481 
L 2356 0 
L 1766 0 
Q 1100 0 847 248 
Q 594 497 594 1153 
L 594 3053 
L 172 3053 
L 172 3500 
L 594 3500 
L 594 4494 
L 1172 4494 
z
" transform="scale(0.015625)"/>
      <path id="DejaVuSans-5c" d="M 2059 -325 
Q 1816 -950 1584 -1140 
Q 1353 -1331 966 -1331 
L 506 -1331 
L 506 -850 
L 844 -850 
Q 1081 -850 1212 -737 
Q 1344 -625 1503 -206 
L 1606 56 
L 191 3500 
L 800 3500 
L 1894 763 
L 2988 3500 
L 3597 3500 
L 2059 -325 
z
" transform="scale(0.015625)"/>
      <path id="DejaVuSans-59" d="M 191 3500 
L 800 3500 
L 1894 563 
L 2988 3500 
L 3597 3500 
L 2284 0 
L 1503 0 
L 191 3500 
z
" transform="scale(0.015625)"/>
      <path id="DejaVuSans-55" d="M 2631 2963 
Q 2534 3019 2420 3045 
Q 2306 3072 2169 3072 
Q 1681 3072 1420 2755 
Q 1159 2438 1159 1844 
L 1159 0 
L 581 0 
L 581 3500 
L 1159 3500 
L 1159 2956 
Q 1341 3275 1631 3429 
Q 1922 3584 2338 3584 
Q 2397 3584 2469 3576 
Q 2541 3569 2628 3553 
L 2631 2963 
z
" transform="scale(0.015625)"/>
      <path id="DejaVuSans-4a" d="M 2906 1791 
Q 2906 2416 2648 2759 
Q 2391 3103 1925 3103 
Q 1463 3103 1205 2759 
Q 947 2416 947 1791 
Q 947 1169 1205 825 
Q 1463 481 1925 481 
Q 2391 481 2648 825 
Q 2906 1169 2906 1791 
z
M 3481 434 
Q 3481 -459 3084 -895 
Q 2688 -1331 1869 -1331 
Q 1566 -1331 1297 -1286 
Q 1028 -1241 775 -1147 
L 775 -588 
Q 1028 -725 1275 -790 
Q 1522 -856 1778 -856 
Q 2344 -856 2625 -561 
Q 2906 -266 2906 331 
L 2906 616 
Q 2728 306 2450 153 
Q 2172 0 1784 0 
Q 1141 0 747 490 
Q 353 981 353 1791 
Q 353 2603 747 3093 
Q 1141 3584 1784 3584 
Q 2172 3584 2450 3431 
Q 2728 3278 2906 2969 
L 2906 3500 
L 3481 3500 
L 3481 434 
z
" transform="scale(0.015625)"/>
     </defs>
     <use xlink:href="#DejaVuSans-30"/>
     <use xlink:href="#DejaVuSans-52" transform="translate(86.28125 0)"/>
     <use xlink:href="#DejaVuSans-4c" transform="translate(147.46875 0)"/>
     <use xlink:href="#DejaVuSans-3" transform="translate(175.25 0)"/>
     <use xlink:href="#DejaVuSans-50" transform="translate(207.03125 0)"/>
     <use xlink:href="#DejaVuSans-44" transform="translate(304.4375 0)"/>
     <use xlink:href="#DejaVuSans-3" transform="translate(365.71875 0)"/>
     <use xlink:href="#DejaVuSans-a" transform="translate(397.5 0)"/>
     <use xlink:href="#DejaVuSans-51" transform="translate(424.984375 0)"/>
     <use xlink:href="#DejaVuSans-4b" transform="translate(488.359375 0)"/>
     <use xlink:href="#DejaVuSans-4c" transform="translate(551.734375 0)"/>
     <use xlink:href="#DejaVuSans-51" transform="translate(579.515625 0)"/>
     <use xlink:href="#DejaVuSans-3" transform="translate(642.890625 0)"/>
     <use xlink:href="#DejaVuSans-57" transform="translate(674.671875 0)"/>
     <use xlink:href="#DejaVuSans-4b" transform="translate(713.875 0)"/>
     <use xlink:href="#DejaVuSans-44" transform="translate(777.25 0)"/>
     <use xlink:href="#DejaVuSans-5c" transform="translate(838.53125 0)"/>
     <use xlink:href="#DejaVuSans-a" transform="translate(897.71875 0)"/>
     <use xlink:href="#DejaVuSans-3" transform="translate(925.203125 0)"/>
     <use xlink:href="#DejaVuSans-59" transform="translate(956.984375 0)"/>
     <use xlink:href="#DejaVuSans-44" transform="translate(1016.171875 0)"/>
     <use xlink:href="#DejaVuSans-3" transform="translate(1077.453125 0)"/>
     <use xlink:href="#DejaVuSans-57" transform="translate(1109.234375 0)"/>
     <use xlink:href="#DejaVuSans-55" transform="translate(1148.4375 0)"/>
     <use xlink:href="#DejaVuSans-52" transform="translate(1187.34375 0)"/>
     <use xlink:href="#DejaVuSans-51" transform="translate(1248.53125 0)"/>
     <use xlink:href="#DejaVuSans-3" transform="translate(1311.90625 0)"/>
     <use xlink:href="#DejaVuSans-57" transform="translate(1343.6875 0)"/>
     <use xlink:href="#DejaVuSans-4b" transform="translate(1382.890625 0)"/>
     <use xlink:href="#DejaVuSans-52" transform="translate(1446.265625 0)"/>
     <use xlink:href="#DejaVuSans-51" transform="translate(1507.453125 0)"/>
     <use xlink:href="#DejaVuSans-4a" transform="translate(1570.828125 0)"/>
     <use xlink:href="#DejaVuSans-3" transform="translate(1634.3125 0)"/>
     <use xlink:href="#DejaVuSans-57" transform="translate(1666.09375 0)"/>
     <use xlink:href="#DejaVuSans-4c" transform="translate(1705.296875 0)"/>
     <use xlink:href="#DejaVuSans-51" transform="translate(1733.078125 0)"/>
    </g>
    <!-- tu ma khac (qua GAT attention) -->
    <g transform="translate(74.002539 216.446359) scale(0.085 -0.085)">
     <defs>
      <path id="DejaVuSans-58" d="M 544 1381 
L 544 3500 
L 1119 3500 
L 1119 1403 
Q 1119 906 1312 657 
Q 1506 409 1894 409 
Q 2359 409 2629 706 
Q 2900 1003 2900 1516 
L 2900 3500 
L 3475 3500 
L 3475 0 
L 2900 0 
L 2900 538 
Q 2691 219 2414 64 
Q 2138 -91 1772 -91 
Q 1169 -91 856 284 
Q 544 659 544 1381 
z
M 1991 3584 
L 1991 3584 
z
" transform="scale(0.015625)"/>
      <path id="DejaVuSans-4e" d="M 581 4863 
L 1159 4863 
L 1159 1991 
L 2875 3500 
L 3609 3500 
L 1753 1863 
L 3688 0 
L 2938 0 
L 1159 1709 
L 1159 0 
L 581 0 
L 581 4863 
z
" transform="scale(0.015625)"/>
      <path id="DejaVuSans-46" d="M 3122 3366 
L 3122 2828 
Q 2878 2963 2633 3030 
Q 2388 3097 2138 3097 
Q 1578 3097 1268 2742 
Q 959 2388 959 1747 
Q 959 1106 1268 751 
Q 1578 397 2138 397 
Q 2388 397 2633 464 
Q 2878 531 3122 666 
L 3122 134 
Q 2881 22 2623 -34 
Q 2366 -91 2075 -91 
Q 1284 -91 818 406 
Q 353 903 353 1747 
Q 353 2603 823 3093 
Q 1294 3584 2113 3584 
Q 2378 3584 2631 3529 
Q 2884 3475 3122 3366 
z
" transform="scale(0.015625)"/>
      <path id="DejaVuSans-b" d="M 1984 4856 
Q 1566 4138 1362 3434 
Q 1159 2731 1159 2009 
Q 1159 1288 1364 580 
Q 1569 -128 1984 -844 
L 1484 -844 
Q 1016 -109 783 600 
Q 550 1309 550 2009 
Q 550 2706 781 3412 
Q 1013 4119 1484 4856 
L 1984 4856 
z
" transform="scale(0.015625)"/>
      <path id="DejaVuSans-54" d="M 947 1747 
Q 947 1113 1208 752 
Q 1469 391 1925 391 
Q 2381 391 2643 752 
Q 2906 1113 2906 1747 
Q 2906 2381 2643 2742 
Q 2381 3103 1925 3103 
Q 1469 3103 1208 2742 
Q 947 2381 947 1747 
z
M 2906 525 
Q 2725 213 2448 61 
Q 2172 -91 1784 -91 
Q 1150 -91 751 415 
Q 353 922 353 1747 
Q 353 2572 751 3078 
Q 1150 3584 1784 3584 
Q 2172 3584 2448 3432 
Q 2725 3281 2906 2969 
L 2906 3500 
L 3481 3500 
L 3481 -1331 
L 2906 -1331 
L 2906 525 
z
" transform="scale(0.015625)"/>
      <path id="DejaVuSans-2a" d="M 3809 666 
L 3809 1919 
L 2778 1919 
L 2778 2438 
L 4434 2438 
L 4434 434 
Q 4069 175 3628 42 
Q 3188 -91 2688 -91 
Q 1594 -91 976 548 
Q 359 1188 359 2328 
Q 359 3472 976 4111 
Q 1594 4750 2688 4750 
Q 3144 4750 3555 4637 
Q 3966 4525 4313 4306 
L 4313 3634 
Q 3963 3931 3569 4081 
Q 3175 4231 2741 4231 
Q 1884 4231 1454 3753 
Q 1025 3275 1025 2328 
Q 1025 1384 1454 906 
Q 1884 428 2741 428 
Q 3075 428 3337 486 
Q 3600 544 3809 666 
z
" transform="scale(0.015625)"/>
      <path id="DejaVuSans-37" d="M -19 4666 
L 3928 4666 
L 3928 4134 
L 2272 4134 
L 2272 0 
L 1638 0 
L 1638 4134 
L -19 4134 
L -19 4666 
z
" transform="scale(0.015625)"/>
      <path id="DejaVuSans-48" d="M 3597 1894 
L 3597 1613 
L 953 1613 
Q 991 1019 1311 708 
Q 1631 397 2203 397 
Q 2534 397 2845 478 
Q 3156 559 3463 722 
L 3463 178 
Q 3153 47 2828 -22 
Q 2503 -91 2169 -91 
Q 1331 -91 842 396 
Q 353 884 353 1716 
Q 353 2575 817 3079 
Q 1281 3584 2069 3584 
Q 2775 3584 3186 3129 
Q 3597 2675 3597 1894 
z
M 3022 2063 
Q 3016 2534 2758 2815 
Q 2500 3097 2075 3097 
Q 1594 3097 1305 2825 
Q 1016 2553 972 2059 
L 3022 2063 
z
" transform="scale(0.015625)"/>
      <path id="DejaVuSans-c" d="M 513 4856 
L 1013 4856 
Q 1481 4119 1714 3412 
Q 1947 2706 1947 2009 
Q 1947 1309 1714 600 
Q 1481 -109 1013 -844 
L 513 -844 
Q 928 -128 1133 580 
Q 1338 1288 1338 2009 
Q 1338 2731 1133 3434 
Q 928 4138 513 4856 
z
" transform="scale(0.015625)"/>
     </defs>
     <use xlink:href="#DejaVuSans-57"/>
     <use xlink:href="#DejaVuSans-58" transform="translate(39.203125 0)"/>
     <use xlink:href="#DejaVuSans-3" transform="translate(102.578125 0)"/>
     <use xlink:href="#DejaVuSans-50" transform="translate(134.359375 0)"/>
     <use xlink:href="#DejaVuSans-44" transform="translate(231.765625 0)"/>
     <use xlink:href="#DejaVuSans-3" transform="translate(293.046875 0)"/>
     <use xlink:href="#DejaVuSans-4e" transform="translate(324.828125 0)"/>
     <use xlink:href="#DejaVuSans-4b" transform="translate(382.734375 0)"/>
     <use xlink:href="#DejaVuSans-44" transform="translate(446.109375 0)"/>
     <use xlink:href="#DejaVuSans-46" transform="translate(507.390625 0)"/>
     <use xlink:href="#DejaVuSans-3" transform="translate(562.375 0)"/>
     <use xlink:href="#DejaVuSans-b" transform="translate(594.15625 0)"/>
     <use xlink:href="#DejaVuSans-54" transform="translate(633.171875 0)"/>
     <use xlink:href="#DejaVuSans-58" transform="translate(696.65625 0)"/>
     <use xlink:href="#DejaVuSans-44" transform="translate(760.03125 0)"/>
     <use xlink:href="#DejaVuSans-3" transform="translate(821.3125 0)"/>
     <use xlink:href="#DejaVuSans-2a" transform="translate(853.09375 0)"/>
     <use xlink:href="#DejaVuSans-24" transform="translate(930.578125 0)"/>
     <use xlink:href="#DejaVuSans-37" transform="translate(991.21875 0)"/>
     <use xlink:href="#DejaVuSans-3" transform="translate(1052.296875 0)"/>
     <use xlink:href="#DejaVuSans-44" transform="translate(1084.078125 0)"/>
     <use xlink:href="#DejaVuSans-57" transform="translate(1145.359375 0)"/>
     <use xlink:href="#DejaVuSans-57" transform="translate(1184.5625 0)"/>
     <use xlink:href="#DejaVuSans-48" transform="translate(1223.765625 0)"/>
     <use xlink:href="#DejaVuSans-51" transform="translate(1285.296875 0)"/>
     <use xlink:href="#DejaVuSans-57" transform="translate(1348.671875 0)"/>
     <use xlink:href="#DejaVuSans-4c" transform="translate(1387.875 0)"/>
     <use xlink:href="#DejaVuSans-52" transform="translate(1415.65625 0)"/>
     <use xlink:href="#DejaVuSans-51" transform="translate(1476.84375 0)"/>
     <use xlink:href="#DejaVuSans-c" transform="translate(1540.21875 0)"/>
    </g>
   </g>
   <g id="patch_11">
    <path d="M 260.299182 144.374359 
Q 272.248906 144.374359 283.080597 144.374359 
" style="fill: none; stroke: #333333; stroke-linecap: round"/>
    <path d="M 279.080597 142.374359 
L 283.080597 144.374359 
L 279.080597 146.374359 
z
" style="fill: #333333; stroke: #333333; stroke-linecap: round"/>
   </g>
   <g id="text_6">
    <!-- Ablation: -->
    <g transform="translate(254.4025 118.140172) scale(0.08 -0.08)">
     <defs>
      <path id="DejaVuSans-45" d="M 3116 1747 
Q 3116 2381 2855 2742 
Q 2594 3103 2138 3103 
Q 1681 3103 1420 2742 
Q 1159 2381 1159 1747 
Q 1159 1113 1420 752 
Q 1681 391 2138 391 
Q 2594 391 2855 752 
Q 3116 1113 3116 1747 
z
M 1159 2969 
Q 1341 3281 1617 3432 
Q 1894 3584 2278 3584 
Q 2916 3584 3314 3078 
Q 3713 2572 3713 1747 
Q 3713 922 3314 415 
Q 2916 -91 2278 -91 
Q 1894 -91 1617 61 
Q 1341 213 1159 525 
L 1159 0 
L 581 0 
L 581 4863 
L 1159 4863 
L 1159 2969 
z
" transform="scale(0.015625)"/>
      <path id="DejaVuSans-4f" d="M 603 4863 
L 1178 4863 
L 1178 0 
L 603 0 
L 603 4863 
z
" transform="scale(0.015625)"/>
      <path id="DejaVuSans-1d" d="M 750 794 
L 1409 794 
L 1409 0 
L 750 0 
L 750 794 
z
M 750 3309 
L 1409 3309 
L 1409 2516 
L 750 2516 
L 750 3309 
z
" transform="scale(0.015625)"/>
     </defs>
     <use xlink:href="#DejaVuSans-24"/>
     <use xlink:href="#DejaVuSans-45" transform="translate(68.40625 0)"/>
     <use xlink:href="#DejaVuSans-4f" transform="translate(131.890625 0)"/>
     <use xlink:href="#DejaVuSans-44" transform="translate(159.671875 0)"/>
     <use xlink:href="#DejaVuSans-57" transform="translate(220.953125 0)"/>
     <use xlink:href="#DejaVuSans-4c" transform="translate(260.15625 0)"/>
     <use xlink:href="#DejaVuSans-52" transform="translate(287.9375 0)"/>
     <use xlink:href="#DejaVuSans-51" transform="translate(349.125 0)"/>
     <use xlink:href="#DejaVuSans-1d" transform="translate(412.5 0)"/>
    </g>
    <!-- adj -&gt; eye(N) -->
    <g transform="translate(245.406875 127.742359) scale(0.08 -0.08)">
     <defs>
      <path id="DejaVuSans-47" d="M 2906 2969 
L 2906 4863 
L 3481 4863 
L 3481 0 
L 2906 0 
L 2906 525 
Q 2725 213 2448 61 
Q 2172 -91 1784 -91 
Q 1150 -91 751 415 
Q 353 922 353 1747 
Q 353 2572 751 3078 
Q 1150 3584 1784 3584 
Q 2172 3584 2448 3432 
Q 2725 3281 2906 2969 
z
M 947 1747 
Q 947 1113 1208 752 
Q 1469 391 1925 391 
Q 2381 391 2643 752 
Q 2906 1113 2906 1747 
Q 2906 2381 2643 2742 
Q 2381 3103 1925 3103 
Q 1469 3103 1208 2742 
Q 947 2381 947 1747 
z
" transform="scale(0.015625)"/>
      <path id="DejaVuSans-4d" d="M 603 3500 
L 1178 3500 
L 1178 -63 
Q 1178 -731 923 -1031 
Q 669 -1331 103 -1331 
L -116 -1331 
L -116 -844 
L 38 -844 
Q 366 -844 484 -692 
Q 603 -541 603 -63 
L 603 3500 
z
M 603 4863 
L 1178 4863 
L 1178 4134 
L 603 4134 
L 603 4863 
z
" transform="scale(0.015625)"/>
      <path id="DejaVuSans-10" d="M 313 2009 
L 1997 2009 
L 1997 1497 
L 313 1497 
L 313 2009 
z
" transform="scale(0.015625)"/>
      <path id="DejaVuSans-21" d="M 678 3150 
L 678 3719 
L 4684 2266 
L 4684 1747 
L 678 294 
L 678 863 
L 3897 2003 
L 678 3150 
z
" transform="scale(0.015625)"/>
      <path id="DejaVuSans-31" d="M 628 4666 
L 1478 4666 
L 3547 763 
L 3547 4666 
L 4159 4666 
L 4159 0 
L 3309 0 
L 1241 3903 
L 1241 0 
L 628 0 
L 628 4666 
z
" transform="scale(0.015625)"/>
     </defs>
     <use xlink:href="#DejaVuSans-44"/>
     <use xlink:href="#DejaVuSans-47" transform="translate(61.28125 0)"/>
     <use xlink:href="#DejaVuSans-4d" transform="translate(124.765625 0)"/>
     <use xlink:href="#DejaVuSans-3" transform="translate(152.546875 0)"/>
     <use xlink:href="#DejaVuSans-10" transform="translate(184.328125 0)"/>
     <use xlink:href="#DejaVuSans-21" transform="translate(220.40625 0)"/>
     <use xlink:href="#DejaVuSans-3" transform="translate(304.203125 0)"/>
     <use xlink:href="#DejaVuSans-48" transform="translate(335.984375 0)"/>
     <use xlink:href="#DejaVuSans-5c" transform="translate(397.515625 0)"/>
     <use xlink:href="#DejaVuSans-48" transform="translate(456.703125 0)"/>
     <use xlink:href="#DejaVuSans-b" transform="translate(518.234375 0)"/>
     <use xlink:href="#DejaVuSans-31" transform="translate(557.25 0)"/>
     <use xlink:href="#DejaVuSans-c" transform="translate(632.0625 0)"/>
    </g>
   </g>
   <g id="text_7">
    <!-- Do thi THAY THE (identity) -->
    <g transform="translate(349.443438 50.126359) scale(0.11 -0.11)">
     <defs>
      <path id="DejaVuSans-Bold-3c" d="M -63 4666 
L 1253 4666 
L 2316 3003 
L 3378 4666 
L 4697 4666 
L 2919 1966 
L 2919 0 
L 1716 0 
L 1716 1966 
L -63 4666 
z
" transform="scale(0.015625)"/>
      <path id="DejaVuSans-Bold-28" d="M 588 4666 
L 3834 4666 
L 3834 3756 
L 1791 3756 
L 1791 2888 
L 3713 2888 
L 3713 1978 
L 1791 1978 
L 1791 909 
L 3903 909 
L 3903 0 
L 588 0 
L 588 4666 
z
" transform="scale(0.015625)"/>
      <path id="DejaVuSans-Bold-47" d="M 2919 2988 
L 2919 4863 
L 4044 4863 
L 4044 0 
L 2919 0 
L 2919 506 
Q 2688 197 2409 53 
Q 2131 -91 1766 -91 
Q 1119 -91 703 423 
Q 288 938 288 1747 
Q 288 2556 703 3070 
Q 1119 3584 1766 3584 
Q 2128 3584 2408 3439 
Q 2688 3294 2919 2988 
z
M 2181 722 
Q 2541 722 2730 984 
Q 2919 1247 2919 1747 
Q 2919 2247 2730 2509 
Q 2541 2772 2181 2772 
Q 1825 2772 1636 2509 
Q 1447 2247 1447 1747 
Q 1447 1247 1636 984 
Q 1825 722 2181 722 
z
" transform="scale(0.015625)"/>
      <path id="DejaVuSans-Bold-48" d="M 4031 1759 
L 4031 1441 
L 1416 1441 
Q 1456 1047 1700 850 
Q 1944 653 2381 653 
Q 2734 653 3104 758 
Q 3475 863 3866 1075 
L 3866 213 
Q 3469 63 3072 -14 
Q 2675 -91 2278 -91 
Q 1328 -91 801 392 
Q 275 875 275 1747 
Q 275 2603 792 3093 
Q 1309 3584 2216 3584 
Q 3041 3584 3536 3087 
Q 4031 2591 4031 1759 
z
M 2881 2131 
Q 2881 2450 2695 2645 
Q 2509 2841 2209 2841 
Q 1884 2841 1681 2658 
Q 1478 2475 1428 2131 
L 2881 2131 
z
" transform="scale(0.015625)"/>
      <path id="DejaVuSans-Bold-51" d="M 4056 2131 
L 4056 0 
L 2931 0 
L 2931 347 
L 2931 1631 
Q 2931 2084 2911 2256 
Q 2891 2428 2841 2509 
Q 2775 2619 2662 2680 
Q 2550 2741 2406 2741 
Q 2056 2741 1856 2470 
Q 1656 2200 1656 1722 
L 1656 0 
L 538 0 
L 538 3500 
L 1656 3500 
L 1656 2988 
Q 1909 3294 2193 3439 
Q 2478 3584 2822 3584 
Q 3428 3584 3742 3212 
Q 4056 2841 4056 2131 
z
" transform="scale(0.015625)"/>
      <path id="DejaVuSans-Bold-5c" d="M 78 3500 
L 1197 3500 
L 2138 1125 
L 2938 3500 
L 4056 3500 
L 2584 -331 
Q 2363 -916 2067 -1148 
Q 1772 -1381 1288 -1381 
L 641 -1381 
L 641 -647 
L 991 -647 
Q 1275 -647 1404 -556 
Q 1534 -466 1606 -231 
L 1638 -134 
L 78 3500 
z
" transform="scale(0.015625)"/>
     </defs>
     <use xlink:href="#DejaVuSans-Bold-27"/>
     <use xlink:href="#DejaVuSans-Bold-52" transform="translate(83.015625 0)"/>
     <use xlink:href="#DejaVuSans-Bold-3" transform="translate(151.71875 0)"/>
     <use xlink:href="#DejaVuSans-Bold-57" transform="translate(186.53125 0)"/>
     <use xlink:href="#DejaVuSans-Bold-4b" transform="translate(234.328125 0)"/>
     <use xlink:href="#DejaVuSans-Bold-4c" transform="translate(305.515625 0)"/>
     <use xlink:href="#DejaVuSans-Bold-3" transform="translate(339.796875 0)"/>
     <use xlink:href="#DejaVuSans-Bold-37" transform="translate(374.609375 0)"/>
     <use xlink:href="#DejaVuSans-Bold-2b" transform="translate(442.828125 0)"/>
     <use xlink:href="#DejaVuSans-Bold-24" transform="translate(526.515625 0)"/>
     <use xlink:href="#DejaVuSans-Bold-3c" transform="translate(594.34375 0)"/>
     <use xlink:href="#DejaVuSans-Bold-3" transform="translate(666.75 0)"/>
     <use xlink:href="#DejaVuSans-Bold-37" transform="translate(701.5625 0)"/>
     <use xlink:href="#DejaVuSans-Bold-2b" transform="translate(769.78125 0)"/>
     <use xlink:href="#DejaVuSans-Bold-28" transform="translate(853.46875 0)"/>
     <use xlink:href="#DejaVuSans-Bold-3" transform="translate(921.78125 0)"/>
     <use xlink:href="#DejaVuSans-Bold-b" transform="translate(956.59375 0)"/>
     <use xlink:href="#DejaVuSans-Bold-4c" transform="translate(1002.296875 0)"/>
     <use xlink:href="#DejaVuSans-Bold-47" transform="translate(1036.578125 0)"/>
     <use xlink:href="#DejaVuSans-Bold-48" transform="translate(1108.15625 0)"/>
     <use xlink:href="#DejaVuSans-Bold-51" transform="translate(1175.984375 0)"/>
     <use xlink:href="#DejaVuSans-Bold-57" transform="translate(1247.171875 0)"/>
     <use xlink:href="#DejaVuSans-Bold-4c" transform="translate(1294.96875 0)"/>
     <use xlink:href="#DejaVuSans-Bold-57" transform="translate(1329.25 0)"/>
     <use xlink:href="#DejaVuSans-Bold-5c" transform="translate(1377.046875 0)"/>
     <use xlink:href="#DejaVuSans-Bold-c" transform="translate(1442.234375 0)"/>
    </g>
   </g>
   <g id="text_8">
    <!-- ma A -->
    <g transform="translate(351.37625 122.024016) scale(0.1 -0.1)">
     <use xlink:href="#DejaVuSans-50"/>
     <use xlink:href="#DejaVuSans-44" transform="translate(97.40625 0)"/>
     <use xlink:href="#DejaVuSans-3" transform="translate(158.6875 0)"/>
     <use xlink:href="#DejaVuSans-24" transform="translate(190.46875 0)"/>
    </g>
   </g>
   <g id="text_9">
    <!-- ma B -->
    <g transform="translate(462.966094 94.304016) scale(0.1 -0.1)">
     <use xlink:href="#DejaVuSans-50"/>
     <use xlink:href="#DejaVuSans-44" transform="translate(97.40625 0)"/>
     <use xlink:href="#DejaVuSans-3" transform="translate(158.6875 0)"/>
     <use xlink:href="#DejaVuSans-25" transform="translate(190.46875 0)"/>
    </g>
   </g>
   <g id="text_10">
    <!-- ma C -->
    <g transform="translate(462.905156 160.832016) scale(0.1 -0.1)">
     <use xlink:href="#DejaVuSans-50"/>
     <use xlink:href="#DejaVuSans-44" transform="translate(97.40625 0)"/>
     <use xlink:href="#DejaVuSans-3" transform="translate(158.6875 0)"/>
     <use xlink:href="#DejaVuSans-26" transform="translate(190.46875 0)"/>
    </g>
   </g>
   <g id="patch_12">
    <path d="M 383.166974 98.143331 
Q 364.319884 47.217075 345.860836 97.095424 
" style="fill: none; stroke: #333333; stroke-linecap: round"/>
    <path d="M 349.124814 94.038228 
L 345.860836 97.095424 
L 345.373466 92.649924 
z
" style="fill: #333333; stroke: #333333; stroke-linecap: round"/>
   </g>
   <g id="patch_13">
    <path d="M 494.766974 70.423331 
Q 475.919884 19.497075 457.460836 69.375424 
" style="fill: none; stroke: #333333; stroke-linecap: round"/>
    <path d="M 460.724814 66.318228 
L 457.460836 69.375424 
L 456.973466 64.929924 
z
" style="fill: #333333; stroke: #333333; stroke-linecap: round"/>
   </g>
   <g id="patch_14">
    <path d="M 494.766974 136.951331 
Q 475.919884 86.025075 457.460836 135.903424 
" style="fill: none; stroke: #333333; stroke-linecap: round"/>
    <path d="M 460.724814 132.846228 
L 457.460836 135.903424 
L 456.973466 131.457924 
z
" style="fill: #333333; stroke: #333333; stroke-linecap: round"/>
   </g>
   <g id="text_11">
    <!-- Moi ma CHI tu nhin chinh no (self-loop) - -->
    <g transform="translate(345.615938 196.041711) scale(0.085 -0.085)">
     <defs>
      <path id="DejaVuSans-2b" d="M 628 4666 
L 1259 4666 
L 1259 2753 
L 3553 2753 
L 3553 4666 
L 4184 4666 
L 4184 0 
L 3553 0 
L 3553 2222 
L 1259 2222 
L 1259 0 
L 628 0 
L 628 4666 
z
" transform="scale(0.015625)"/>
      <path id="DejaVuSans-2c" d="M 628 4666 
L 1259 4666 
L 1259 0 
L 628 0 
L 628 4666 
z
" transform="scale(0.015625)"/>
      <path id="DejaVuSans-56" d="M 2834 3397 
L 2834 2853 
Q 2591 2978 2328 3040 
Q 2066 3103 1784 3103 
Q 1356 3103 1142 2972 
Q 928 2841 928 2578 
Q 928 2378 1081 2264 
Q 1234 2150 1697 2047 
L 1894 2003 
Q 2506 1872 2764 1633 
Q 3022 1394 3022 966 
Q 3022 478 2636 193 
Q 2250 -91 1575 -91 
Q 1294 -91 989 -36 
Q 684 19 347 128 
L 347 722 
Q 666 556 975 473 
Q 1284 391 1588 391 
Q 1994 391 2212 530 
Q 2431 669 2431 922 
Q 2431 1156 2273 1281 
Q 2116 1406 1581 1522 
L 1381 1569 
Q 847 1681 609 1914 
Q 372 2147 372 2553 
Q 372 3047 722 3315 
Q 1072 3584 1716 3584 
Q 2034 3584 2315 3537 
Q 2597 3491 2834 3397 
z
" transform="scale(0.015625)"/>
      <path id="DejaVuSans-49" d="M 2375 4863 
L 2375 4384 
L 1825 4384 
Q 1516 4384 1395 4259 
Q 1275 4134 1275 3809 
L 1275 3500 
L 2222 3500 
L 2222 3053 
L 1275 3053 
L 1275 0 
L 697 0 
L 697 3053 
L 147 3053 
L 147 3500 
L 697 3500 
L 697 3744 
Q 697 4328 969 4595 
Q 1241 4863 1831 4863 
L 2375 4863 
z
" transform="scale(0.015625)"/>
      <path id="DejaVuSans-53" d="M 1159 525 
L 1159 -1331 
L 581 -1331 
L 581 3500 
L 1159 3500 
L 1159 2969 
Q 1341 3281 1617 3432 
Q 1894 3584 2278 3584 
Q 2916 3584 3314 3078 
Q 3713 2572 3713 1747 
Q 3713 922 3314 415 
Q 2916 -91 2278 -91 
Q 1894 -91 1617 61 
Q 1341 213 1159 525 
z
M 3116 1747 
Q 3116 2381 2855 2742 
Q 2594 3103 2138 3103 
Q 1681 3103 1420 2742 
Q 1159 2381 1159 1747 
Q 1159 1113 1420 752 
Q 1681 391 2138 391 
Q 2594 391 2855 752 
Q 3116 1113 3116 1747 
z
" transform="scale(0.015625)"/>
     </defs>
     <use xlink:href="#DejaVuSans-30"/>
     <use xlink:href="#DejaVuSans-52" transform="translate(86.28125 0)"/>
     <use xlink:href="#DejaVuSans-4c" transform="translate(147.46875 0)"/>
     <use xlink:href="#DejaVuSans-3" transform="translate(175.25 0)"/>
     <use xlink:href="#DejaVuSans-50" transform="translate(207.03125 0)"/>
     <use xlink:href="#DejaVuSans-44" transform="translate(304.4375 0)"/>
     <use xlink:href="#DejaVuSans-3" transform="translate(365.71875 0)"/>
     <use xlink:href="#DejaVuSans-26" transform="translate(397.5 0)"/>
     <use xlink:href="#DejaVuSans-2b" transform="translate(467.328125 0)"/>
     <use xlink:href="#DejaVuSans-2c" transform="translate(542.53125 0)"/>
     <use xlink:href="#DejaVuSans-3" transform="translate(572.03125 0)"/>
     <use xlink:href="#DejaVuSans-57" transform="translate(603.8125 0)"/>
     <use xlink:href="#DejaVuSans-58" transform="translate(643.015625 0)"/>
     <use xlink:href="#DejaVuSans-3" transform="translate(706.390625 0)"/>
     <use xlink:href="#DejaVuSans-51" transform="translate(738.171875 0)"/>
     <use xlink:href="#DejaVuSans-4b" transform="translate(801.546875 0)"/>
     <use xlink:href="#DejaVuSans-4c" transform="translate(864.921875 0)"/>
     <use xlink:href="#DejaVuSans-51" transform="translate(892.703125 0)"/>
     <use xlink:href="#DejaVuSans-3" transform="translate(956.078125 0)"/>
     <use xlink:href="#DejaVuSans-46" transform="translate(987.859375 0)"/>
     <use xlink:href="#DejaVuSans-4b" transform="translate(1042.84375 0)"/>
     <use xlink:href="#DejaVuSans-4c" transform="translate(1106.21875 0)"/>
     <use xlink:href="#DejaVuSans-51" transform="translate(1134 0)"/>
     <use xlink:href="#DejaVuSans-4b" transform="translate(1197.375 0)"/>
     <use xlink:href="#DejaVuSans-3" transform="translate(1260.75 0)"/>
     <use xlink:href="#DejaVuSans-51" transform="translate(1292.53125 0)"/>
     <use xlink:href="#DejaVuSans-52" transform="translate(1355.90625 0)"/>
     <use xlink:href="#DejaVuSans-3" transform="translate(1417.09375 0)"/>
     <use xlink:href="#DejaVuSans-b" transform="translate(1448.875 0)"/>
     <use xlink:href="#DejaVuSans-56" transform="translate(1487.890625 0)"/>
     <use xlink:href="#DejaVuSans-48" transform="translate(1539.984375 0)"/>
     <use xlink:href="#DejaVuSans-4f" transform="translate(1601.515625 0)"/>
     <use xlink:href="#DejaVuSans-49" transform="translate(1629.296875 0)"/>
     <use xlink:href="#DejaVuSans-10" transform="translate(1659.03125 0)"/>
     <use xlink:href="#DejaVuSans-4f" transform="translate(1695.109375 0)"/>
     <use xlink:href="#DejaVuSans-52" transform="translate(1722.890625 0)"/>
     <use xlink:href="#DejaVuSans-52" transform="translate(1784.078125 0)"/>
     <use xlink:href="#DejaVuSans-53" transform="translate(1845.265625 0)"/>
     <use xlink:href="#DejaVuSans-c" transform="translate(1908.75 0)"/>
     <use xlink:href="#DejaVuSans-3" transform="translate(1947.765625 0)"/>
     <use xlink:href="#DejaVuSans-10" transform="translate(1979.546875 0)"/>
    </g>
    <!-- GAT suy bien thanh bien doi rieng tung ma, -->
    <g transform="translate(338.600117 206.244035) scale(0.085 -0.085)">
     <defs>
      <path id="DejaVuSans-f" d="M 750 794 
L 1409 794 
L 1409 256 
L 897 -744 
L 494 -744 
L 750 256 
L 750 794 
z
" transform="scale(0.015625)"/>
     </defs>
     <use xlink:href="#DejaVuSans-2a"/>
     <use xlink:href="#DejaVuSans-24" transform="translate(77.484375 0)"/>
     <use xlink:href="#DejaVuSans-37" transform="translate(138.125 0)"/>
     <use xlink:href="#DejaVuSans-3" transform="translate(199.203125 0)"/>
     <use xlink:href="#DejaVuSans-56" transform="translate(230.984375 0)"/>
     <use xlink:href="#DejaVuSans-58" transform="translate(283.078125 0)"/>
     <use xlink:href="#DejaVuSans-5c" transform="translate(346.453125 0)"/>
     <use xlink:href="#DejaVuSans-3" transform="translate(405.640625 0)"/>
     <use xlink:href="#DejaVuSans-45" transform="translate(437.421875 0)"/>
     <use xlink:href="#DejaVuSans-4c" transform="translate(500.90625 0)"/>
     <use xlink:href="#DejaVuSans-48" transform="translate(528.6875 0)"/>
     <use xlink:href="#DejaVuSans-51" transform="translate(590.21875 0)"/>
     <use xlink:href="#DejaVuSans-3" transform="translate(653.59375 0)"/>
     <use xlink:href="#DejaVuSans-57" transform="translate(685.375 0)"/>
     <use xlink:href="#DejaVuSans-4b" transform="translate(724.578125 0)"/>
     <use xlink:href="#DejaVuSans-44" transform="translate(787.953125 0)"/>
     <use xlink:href="#DejaVuSans-51" transform="translate(849.234375 0)"/>
     <use xlink:href="#DejaVuSans-4b" transform="translate(912.609375 0)"/>
     <use xlink:href="#DejaVuSans-3" transform="translate(975.984375 0)"/>
     <use xlink:href="#DejaVuSans-45" transform="translate(1007.765625 0)"/>
     <use xlink:href="#DejaVuSans-4c" transform="translate(1071.25 0)"/>
     <use xlink:href="#DejaVuSans-48" transform="translate(1099.03125 0)"/>
     <use xlink:href="#DejaVuSans-51" transform="translate(1160.5625 0)"/>
     <use xlink:href="#DejaVuSans-3" transform="translate(1223.9375 0)"/>
     <use xlink:href="#DejaVuSans-47" transform="translate(1255.71875 0)"/>
     <use xlink:href="#DejaVuSans-52" transform="translate(1319.203125 0)"/>
     <use xlink:href="#DejaVuSans-4c" transform="translate(1380.390625 0)"/>
     <use xlink:href="#DejaVuSans-3" transform="translate(1408.171875 0)"/>
     <use xlink:href="#DejaVuSans-55" transform="translate(1439.953125 0)"/>
     <use xlink:href="#DejaVuSans-4c" transform="translate(1481.0625 0)"/>
     <use xlink:href="#DejaVuSans-48" transform="translate(1508.84375 0)"/>
     <use xlink:href="#DejaVuSans-51" transform="translate(1570.375 0)"/>
     <use xlink:href="#DejaVuSans-4a" transform="translate(1633.75 0)"/>
     <use xlink:href="#DejaVuSans-3" transform="translate(1697.234375 0)"/>
     <use xlink:href="#DejaVuSans-57" transform="translate(1729.015625 0)"/>
     <use xlink:href="#DejaVuSans-58" transform="translate(1768.21875 0)"/>
     <use xlink:href="#DejaVuSans-51" transform="translate(1831.59375 0)"/>
     <use xlink:href="#DejaVuSans-4a" transform="translate(1894.96875 0)"/>
     <use xlink:href="#DejaVuSans-3" transform="translate(1958.453125 0)"/>
     <use xlink:href="#DejaVuSans-50" transform="translate(1990.234375 0)"/>
     <use xlink:href="#DejaVuSans-44" transform="translate(2087.640625 0)"/>
     <use xlink:href="#DejaVuSans-f" transform="translate(2148.921875 0)"/>
    </g>
    <!-- KHONG con truyen thong tin cheo-ma -->
    <g transform="translate(350.669453 216.446359) scale(0.085 -0.085)">
     <defs>
      <path id="DejaVuSans-2e" d="M 628 4666 
L 1259 4666 
L 1259 2694 
L 3353 4666 
L 4166 4666 
L 1850 2491 
L 4331 0 
L 3500 0 
L 1259 2247 
L 1259 0 
L 628 0 
L 628 4666 
z
" transform="scale(0.015625)"/>
      <path id="DejaVuSans-32" d="M 2522 4238 
Q 1834 4238 1429 3725 
Q 1025 3213 1025 2328 
Q 1025 1447 1429 934 
Q 1834 422 2522 422 
Q 3209 422 3611 934 
Q 4013 1447 4013 2328 
Q 4013 3213 3611 3725 
Q 3209 4238 2522 4238 
z
M 2522 4750 
Q 3503 4750 4090 4092 
Q 4678 3434 4678 2328 
Q 4678 1225 4090 567 
Q 3503 -91 2522 -91 
Q 1538 -91 948 565 
Q 359 1222 359 2328 
Q 359 3434 948 4092 
Q 1538 4750 2522 4750 
z
" transform="scale(0.015625)"/>
     </defs>
     <use xlink:href="#DejaVuSans-2e"/>
     <use xlink:href="#DejaVuSans-2b" transform="translate(65.578125 0)"/>
     <use xlink:href="#DejaVuSans-32" transform="translate(140.78125 0)"/>
     <use xlink:href="#DejaVuSans-31" transform="translate(219.5 0)"/>
     <use xlink:href="#DejaVuSans-2a" transform="translate(294.3125 0)"/>
     <use xlink:href="#DejaVuSans-3" transform="translate(371.796875 0)"/>
     <use xlink:href="#DejaVuSans-46" transform="translate(403.578125 0)"/>
     <use xlink:href="#DejaVuSans-52" transform="translate(458.5625 0)"/>
     <use xlink:href="#DejaVuSans-51" transform="translate(519.75 0)"/>
     <use xlink:href="#DejaVuSans-3" transform="translate(583.125 0)"/>
     <use xlink:href="#DejaVuSans-57" transform="translate(614.90625 0)"/>
     <use xlink:href="#DejaVuSans-55" transform="translate(654.109375 0)"/>
     <use xlink:href="#DejaVuSans-58" transform="translate(695.21875 0)"/>
     <use xlink:href="#DejaVuSans-5c" transform="translate(758.59375 0)"/>
     <use xlink:href="#DejaVuSans-48" transform="translate(817.78125 0)"/>
     <use xlink:href="#DejaVuSans-51" transform="translate(879.3125 0)"/>
     <use xlink:href="#DejaVuSans-3" transform="translate(942.6875 0)"/>
     <use xlink:href="#DejaVuSans-57" transform="translate(974.46875 0)"/>
     <use xlink:href="#DejaVuSans-4b" transform="translate(1013.671875 0)"/>
     <use xlink:href="#DejaVuSans-52" transform="translate(1077.046875 0)"/>
     <use xlink:href="#DejaVuSans-51" transform="translate(1138.234375 0)"/>
     <use xlink:href="#DejaVuSans-4a" transform="translate(1201.609375 0)"/>
     <use xlink:href="#DejaVuSans-3" transform="translate(1265.09375 0)"/>
     <use xlink:href="#DejaVuSans-57" transform="translate(1296.875 0)"/>
     <use xlink:href="#DejaVuSans-4c" transform="translate(1336.078125 0)"/>
     <use xlink:href="#DejaVuSans-51" transform="translate(1363.859375 0)"/>
     <use xlink:href="#DejaVuSans-3" transform="translate(1427.234375 0)"/>
     <use xlink:href="#DejaVuSans-46" transform="translate(1459.015625 0)"/>
     <use xlink:href="#DejaVuSans-4b" transform="translate(1514 0)"/>
     <use xlink:href="#DejaVuSans-48" transform="translate(1577.375 0)"/>
     <use xlink:href="#DejaVuSans-52" transform="translate(1638.90625 0)"/>
     <use xlink:href="#DejaVuSans-10" transform="translate(1701.953125 0)"/>
     <use xlink:href="#DejaVuSans-50" transform="translate(1738.03125 0)"/>
     <use xlink:href="#DejaVuSans-44" transform="translate(1835.4375 0)"/>
    </g>
   </g>
   <g id="text_12">
    <!-- (2) Ablation 2: No-Graph - thay adj_matrix bang identity, giu nguyen kien truc/so tham so -->
    <g transform="translate(50.313398 15.178359) scale(0.105 -0.105)">
     <defs>
      <path id="DejaVuSans-15" d="M 1228 531 
L 3431 531 
L 3431 0 
L 469 0 
L 469 531 
Q 828 903 1448 1529 
Q 2069 2156 2228 2338 
Q 2531 2678 2651 2914 
Q 2772 3150 2772 3378 
Q 2772 3750 2511 3984 
Q 2250 4219 1831 4219 
Q 1534 4219 1204 4116 
Q 875 4013 500 3803 
L 500 4441 
Q 881 4594 1212 4672 
Q 1544 4750 1819 4750 
Q 2544 4750 2975 4387 
Q 3406 4025 3406 3419 
Q 3406 3131 3298 2873 
Q 3191 2616 2906 2266 
Q 2828 2175 2409 1742 
Q 1991 1309 1228 531 
z
" transform="scale(0.015625)"/>
      <path id="DejaVuSans-42" d="M 3263 -1063 
L 3263 -1509 
L -63 -1509 
L -63 -1063 
L 3263 -1063 
z
" transform="scale(0.015625)"/>
      <path id="DejaVuSans-5b" d="M 3513 3500 
L 2247 1797 
L 3578 0 
L 2900 0 
L 1881 1375 
L 863 0 
L 184 0 
L 1544 1831 
L 300 3500 
L 978 3500 
L 1906 2253 
L 2834 3500 
L 3513 3500 
z
" transform="scale(0.015625)"/>
      <path id="DejaVuSans-12" d="M 1625 4666 
L 2156 4666 
L 531 -594 
L 0 -594 
L 1625 4666 
z
" transform="scale(0.015625)"/>
     </defs>
     <use xlink:href="#DejaVuSans-b"/>
     <use xlink:href="#DejaVuSans-15" transform="translate(39.015625 0)"/>
     <use xlink:href="#DejaVuSans-c" transform="translate(102.640625 0)"/>
     <use xlink:href="#DejaVuSans-3" transform="translate(141.65625 0)"/>
     <use xlink:href="#DejaVuSans-24" transform="translate(173.4375 0)"/>
     <use xlink:href="#DejaVuSans-45" transform="translate(241.84375 0)"/>
     <use xlink:href="#DejaVuSans-4f" transform="translate(305.328125 0)"/>
     <use xlink:href="#DejaVuSans-44" transform="translate(333.109375 0)"/>
     <use xlink:href="#DejaVuSans-57" transform="translate(394.390625 0)"/>
     <use xlink:href="#DejaVuSans-4c" transform="translate(433.59375 0)"/>
     <use xlink:href="#DejaVuSans-52" transform="translate(461.375 0)"/>
     <use xlink:href="#DejaVuSans-51" transform="translate(522.5625 0)"/>
     <use xlink:href="#DejaVuSans-3" transform="translate(585.9375 0)"/>
     <use xlink:href="#DejaVuSans-15" transform="translate(617.71875 0)"/>
     <use xlink:href="#DejaVuSans-1d" transform="translate(681.34375 0)"/>
     <use xlink:href="#DejaVuSans-3" transform="translate(715.03125 0)"/>
     <use xlink:href="#DejaVuSans-31" transform="translate(746.8125 0)"/>
     <use xlink:href="#DejaVuSans-52" transform="translate(821.625 0)"/>
     <use xlink:href="#DejaVuSans-10" transform="translate(884.671875 0)"/>
     <use xlink:href="#DejaVuSans-2a" transform="translate(924.40625 0)"/>
     <use xlink:href="#DejaVuSans-55" transform="translate(1001.890625 0)"/>
     <use xlink:href="#DejaVuSans-44" transform="translate(1043 0)"/>
     <use xlink:href="#DejaVuSans-53" transform="translate(1104.28125 0)"/>
     <use xlink:href="#DejaVuSans-4b" transform="translate(1167.765625 0)"/>
     <use xlink:href="#DejaVuSans-3" transform="translate(1231.140625 0)"/>
     <use xlink:href="#DejaVuSans-10" transform="translate(1262.921875 0)"/>
     <use xlink:href="#DejaVuSans-3" transform="translate(1299 0)"/>
     <use xlink:href="#DejaVuSans-57" transform="translate(1330.78125 0)"/>
     <use xlink:href="#DejaVuSans-4b" transform="translate(1369.984375 0)"/>
     <use xlink:href="#DejaVuSans-44" transform="translate(1433.359375 0)"/>
     <use xlink:href="#DejaVuSans-5c" transform="translate(1494.640625 0)"/>
     <use xlink:href="#DejaVuSans-3" transform="translate(1553.828125 0)"/>
     <use xlink:href="#DejaVuSans-44" transform="translate(1585.609375 0)"/>
     <use xlink:href="#DejaVuSans-47" transform="translate(1646.890625 0)"/>
     <use xlink:href="#DejaVuSans-4d" transform="translate(1710.375 0)"/>
     <use xlink:href="#DejaVuSans-42" transform="translate(1738.15625 0)"/>
     <use xlink:href="#DejaVuSans-50" transform="translate(1788.15625 0)"/>
     <use xlink:href="#DejaVuSans-44" transform="translate(1885.5625 0)"/>
     <use xlink:href="#DejaVuSans-57" transform="translate(1946.84375 0)"/>
     <use xlink:href="#DejaVuSans-55" transform="translate(1986.046875 0)"/>
     <use xlink:href="#DejaVuSans-4c" transform="translate(2027.15625 0)"/>
     <use xlink:href="#DejaVuSans-5b" transform="translate(2054.9375 0)"/>
     <use xlink:href="#DejaVuSans-3" transform="translate(2114.125 0)"/>
     <use xlink:href="#DejaVuSans-45" transform="translate(2145.90625 0)"/>
     <use xlink:href="#DejaVuSans-44" transform="translate(2209.390625 0)"/>
     <use xlink:href="#DejaVuSans-51" transform="translate(2270.671875 0)"/>
     <use xlink:href="#DejaVuSans-4a" transform="translate(2334.046875 0)"/>
     <use xlink:href="#DejaVuSans-3" transform="translate(2397.53125 0)"/>
     <use xlink:href="#DejaVuSans-4c" transform="translate(2429.3125 0)"/>
     <use xlink:href="#DejaVuSans-47" transform="translate(2457.09375 0)"/>
     <use xlink:href="#DejaVuSans-48" transform="translate(2520.578125 0)"/>
     <use xlink:href="#DejaVuSans-51" transform="translate(2582.109375 0)"/>
     <use xlink:href="#DejaVuSans-57" transform="translate(2645.484375 0)"/>
     <use xlink:href="#DejaVuSans-4c" transform="translate(2684.6875 0)"/>
     <use xlink:href="#DejaVuSans-57" transform="translate(2712.46875 0)"/>
     <use xlink:href="#DejaVuSans-5c" transform="translate(2751.671875 0)"/>
     <use xlink:href="#DejaVuSans-f" transform="translate(2810.859375 0)"/>
     <use xlink:href="#DejaVuSans-3" transform="translate(2842.640625 0)"/>
     <use xlink:href="#DejaVuSans-4a" transform="translate(2874.421875 0)"/>
     <use xlink:href="#DejaVuSans-4c" transform="translate(2937.90625 0)"/>
     <use xlink:href="#DejaVuSans-58" transform="translate(2965.6875 0)"/>
     <use xlink:href="#DejaVuSans-3" transform="translate(3029.0625 0)"/>
     <use xlink:href="#DejaVuSans-51" transform="translate(3060.84375 0)"/>
     <use xlink:href="#DejaVuSans-4a" transform="translate(3124.21875 0)"/>
     <use xlink:href="#DejaVuSans-58" transform="translate(3187.703125 0)"/>
     <use xlink:href="#DejaVuSans-5c" transform="translate(3251.078125 0)"/>
     <use xlink:href="#DejaVuSans-48" transform="translate(3310.265625 0)"/>
     <use xlink:href="#DejaVuSans-51" transform="translate(3371.796875 0)"/>
     <use xlink:href="#DejaVuSans-3" transform="translate(3435.171875 0)"/>
     <use xlink:href="#DejaVuSans-4e" transform="translate(3466.953125 0)"/>
     <use xlink:href="#DejaVuSans-4c" transform="translate(3524.859375 0)"/>
     <use xlink:href="#DejaVuSans-48" transform="translate(3552.640625 0)"/>
     <use xlink:href="#DejaVuSans-51" transform="translate(3614.171875 0)"/>
     <use xlink:href="#DejaVuSans-3" transform="translate(3677.546875 0)"/>
     <use xlink:href="#DejaVuSans-57" transform="translate(3709.328125 0)"/>
     <use xlink:href="#DejaVuSans-55" transform="translate(3748.53125 0)"/>
     <use xlink:href="#DejaVuSans-58" transform="translate(3789.640625 0)"/>
     <use xlink:href="#DejaVuSans-46" transform="translate(3853.015625 0)"/>
     <use xlink:href="#DejaVuSans-12" transform="translate(3908 0)"/>
     <use xlink:href="#DejaVuSans-56" transform="translate(3941.6875 0)"/>
     <use xlink:href="#DejaVuSans-52" transform="translate(3993.78125 0)"/>
     <use xlink:href="#DejaVuSans-3" transform="translate(4054.96875 0)"/>
     <use xlink:href="#DejaVuSans-57" transform="translate(4086.75 0)"/>
     <use xlink:href="#DejaVuSans-4b" transform="translate(4125.953125 0)"/>
     <use xlink:href="#DejaVuSans-44" transform="translate(4189.328125 0)"/>
     <use xlink:href="#DejaVuSans-50" transform="translate(4250.609375 0)"/>
     <use xlink:href="#DejaVuSans-3" transform="translate(4348.015625 0)"/>
     <use xlink:href="#DejaVuSans-56" transform="translate(4379.796875 0)"/>
     <use xlink:href="#DejaVuSans-52" transform="translate(4431.890625 0)"/>
    </g>
   </g>
  </g>
 </g>
 <defs>
  <clipPath id="p7e5dd3d9dc">
   <rect x="7.2" y="25.178359" width="558" height="255.024"/>
  </clipPath>
 </defs>
</svg>
